{
  "accessors": [
    {
      "bufferView": 2,
      "componentType": 5126,
      "count": 56,
      "max": [
        6.251770973205566,
        1.6677169799804688,
        0.5
      ],
      "min": [
        -6.25177001953125,
        -1.6677219867706299,
        -0.5
      ],
      "type": "VEC3"
    },
    {
      "bufferView": 2,
      "byteOffset": 672,
      "componentType": 5126,
      "count": 56,
      "max": [
        0.8653298020362854,
        0.9813356399536133,
        1.0
      ],
      "min": [
        -0.8653298020362854,
        -1.0,
        -1.0
      ],
      "type": "VEC3"
    },
    {
      "bufferView": 3,
      "componentType": 5126,
      "count": 56,
      "max": [
        0.0,
        0.0,
        0.0,
        0.0
      ],
      "min": [
        0.0,
        0.0,
        0.0,
        0.0
      ],
      "type": "VEC4"
    },
    {
      "bufferView": 1,
      "componentType": 5126,
      "count": 56,
      "max": [
        1.0,
        1.0
      ],
      "min": [
        0.0,
        0.0
      ],
      "type": "VEC2"
    },
    {
      "bufferView": 0,
      "componentType": 5125,
      "count": 132,
      "type": "SCALAR"
    },
    {
      "bufferView": 2,
      "byteOffset": 1344,
      "componentType": 5126,
      "count": 587,
      "max": [
        7.948221206665039,
        7.174878120422363,
        5.277092933654785
      ],
      "min": [
        -7.9482197761535645,
        -7.1748881340026855,
        -5.277092933654785
      ],
      "type": "VEC3"
    },
    {
      "bufferView": 2,
      "byteOffset": 8388,
      "componentType": 5126,
      "count": 587,
      "max": [
        0.9999434947967529,
        0.9995045065879822,
        0.9954211115837097
      ],
      "min": [
        -0.9999434947967529,
        -0.9996941089630127,
        -1.0
      ],
      "type": "VEC3"
    },
    {
      "bufferView": 3,
      "byteOffset": 896,
      "componentType": 5126,
      "count": 587,
      "max": [
        0.0,
        0.0,
        0.0,
        0.0
      ],
      "min": [
        0.0,
        0.0,
        0.0,
        0.0
      ],
      "type": "VEC4"
    },
    {
      "bufferView": 1,
      "byteOffset": 448,
      "componentType": 5126,
      "count": 587,
      "max": [
        1.0,
        0.9827359914779663
      ],
      "min": [
        0.0,
        0.0
      ],
      "type": "VEC2"
    },
    {
      "bufferView": 0,
      "byteOffset": 528,
      "componentType": 5125,
      "count": 1599,
      "type": "SCALAR"
    },
    {
      "bufferView": 2,
      "byteOffset": 15432,
      "componentType": 5126,
      "count": 21,
      "max": [
        4.167847156524658,
        2.7233810424804688,
        4.683526992797852
      ],
      "min": [
        -4.167847156524658,
        -1.8567479848861694,
        2.513943910598755
      ],
      "type": "VEC3"
    },
    {
      "bufferView": 2,
      "byteOffset": 15684,
      "componentType": 5126,
      "count": 21,
      "max": [
        -0.0,
        -0.4280932545661926,
        0.903734564781189
      ],
      "min": [
        -2.0000004496978363e-06,
        -0.4280940890312195,
        0.9037342667579651
      ],
      "type": "VEC3"
    },
    {
      "bufferView": 3,
      "byteOffset": 10288,
      "componentType": 5126,
      "count": 21,
      "max": [
        0.0,
        0.0,
        0.0,
        0.0
      ],
      "min": [
        0.0,
        0.0,
        0.0,
        0.0
      ],
      "type": "VEC4"
    },
    {
      "bufferView": 1,
      "byteOffset": 5144,
      "componentType": 5126,
      "count": 21,
      "max": [
        1.2839089632034302,
        0.7401300072669983
      ],
      "min": [
        -0.28390800952911377,
        0.5586119890213013
      ],
      "type": "VEC2"
    },
    {
      "bufferView": 0,
      "byteOffset": 6924,
      "componentType": 5125,
      "count": 57,
      "type": "SCALAR"
    }
  ],
  "asset": {
    "extras": {
      "author": "Inditrion Dradnon (https://sketchfab.com/dradnon)",
      "license": "CC-BY-4.0 (http://creativecommons.org/licenses/by/4.0/)",
      "source": "https://sketchfab.com/3d-models/holo-desk-8d627619a2404cd0bc6fef06bea0e870",
      "title": "Holo Desk"
    },
    "generator": "Sketchfab-12.63.0",
    "version": "2.0"
  },
  "bufferViews": [
    {
      "buffer": 0,
      "byteLength": 7152,
      "name": "floatBufferViews",
      "target": 34963
    },
    {
      "buffer": 0,
      "byteLength": 5312,
      "byteOffset": 7152,
      "byteStride": 8,
      "name": "floatBufferViews",
      "target": 34962
    },
    {
      "buffer": 0,
      "byteLength": 15936,
      "byteOffset": 12464,
      "byteStride": 12,
      "name": "floatBufferViews",
      "target": 34962
    },
    {
      "buffer": 0,
      "byteLength": 10624,
      "byteOffset": 28400,
      "byteStride": 16,
      "name": "floatBufferViews",
      "target": 34962
    }
  ],
  "buffers": [
    {
      "byteLength": 39024,
      "uri": "scene.bin"
    }
  ],
  "extensionsUsed": [
    "KHR_texture_transform"
  ],
  "images": [
    {
      "uri": "textures/MaterialFBXASC032FBXASC0352142150880_baseColor.jpeg"
    },
    {
      "uri": "textures/MaterialFBXASC032FBXASC0352142150880_metallicRoughness.png"
    },
    {
      "uri": "textures/MaterialFBXASC032FBXASC0352142146756_emissive.jpeg"
    },
    {
      "uri": "textures/MaterialFBXASC032FBXASC0352142148090_baseColor.png"
    },
    {
      "uri": "textures/MaterialFBXASC032FBXASC0352142148090_emissive.jpeg"
    }
  ],
  "materials": [
    {
      "doubleSided": true,
      "name": "MaterialFBXASC032FBXASC0352142150880",
      "pbrMetallicRoughness": {
        "baseColorTexture": {
          "index": 0
        },
        "metallicRoughnessTexture": {
          "index": 1
        }
      }
    },
    {
      "doubleSided": true,
      "emissiveFactor": [
        1.0,
        1.0,
        1.0
      ],
      "emissiveTexture": {
        "extensions": {
          "KHR_texture_transform": {
            "offset": [
              0,
              0.4320040257137163
            ],
            "scale": [
              3.000000000000003,
              3.000000000000003
            ]
          }
        },
        "index": 2
      },
      "name": "MaterialFBXASC032FBXASC0352142146756",
      "pbrMetallicRoughness": {
        "baseColorFactor": [
          0.0,
          0.0,
          0.0,
          1.0
        ],
        "metallicFactor": 0.0
      }
    },
    {
      "alphaMode": "BLEND",
      "doubleSided": true,
      "emissiveFactor": [
        1.0,
        1.0,
        1.0
      ],
      "emissiveTexture": {
        "index": 4
      },
      "name": "MaterialFBXASC032FBXASC0352142148090",
      "pbrMetallicRoughness": {
        "baseColorTexture": {
          "index": 3
        },
        "metallicFactor": 0.0
      }
    }
  ],
  "meshes": [
    {
      "name": "MaterialFBXASC032FBXASC0352142148090",
      "primitives": [
        {
          "attributes": {
            "COLOR_0": 2,
            "NORMAL": 1,
            "POSITION": 0,
            "TEXCOORD_0": 3
          },
          "indices": 4,
          "material": 2,
          "mode": 4
        }
      ]
    },
    {
      "name": "MaterialFBXASC032FBXASC0352142150880",
      "primitives": [
        {
          "attributes": {
            "COLOR_0": 7,
            "NORMAL": 6,
            "POSITION": 5,
            "TEXCOORD_0": 8
          },
          "indices": 9,
          "material": 0,
          "mode": 4
        }
      ]
    },
    {
      "name": "MaterialFBXASC032FBXASC0352142146756",
      "primitives": [
        {
          "attributes": {
            "COLOR_0": 12,
            "NORMAL": 11,
            "POSITION": 10,
            "TEXCOORD_0": 13
          },
          "indices": 14,
          "material": 1,
          "mode": 4
        }
      ]
    }
  ],
  "nodes": [
    {
      "children": [
        1
      ],
      "matrix": [
        1.0,
        0.0,
        0.0,
        0.0,
        0.0,
        2.220446049250313e-16,
        -1.0,
        0.0,
        0.0,
        1.0,
        2.220446049250313e-16,
        0.0,
        0.0,
        0.0,
        0.0,
        1.0
      ],
      "name": "Sketchfab_model"
    },
    {
      "children": [
        2,
        4
      ],
      "matrix": [
        1.0,
        0.0,
        0.0,
        0.0,
        0.0,
        -4.371139006309477e-08,
        0.999999999999999,
        0.0,
        0.0,
        -0.999999999999999,
        -4.371139006309477e-08,
        0.0,
        0.0,
        0.0,
        0.0,
        1.0
      ],
      "name": "Collada visual scene group"
    },
    {
      "children": [
        3
      ],
      "matrix": [
        -1.736894,
        0.0,
        0.0,
        0.0,
        0.0,
        0.0,
        0.586072,
        0.0,
        0.0,
        7.934803,
        0.0,
        0.0,
        -25.863865,
        2.806633,
        70.363106,
        1.0
      ],
      "name": "HolotischFBXASC032Hologramm"
    },
    {
      "mesh": 0,
      "name": "MaterialFBXASC032FBXASC0352142148090"
    },
    {
      "children": [
        5,
        6
      ],
      "matrix": [
        -1.736894,
        0.0,
        0.0,
        0.0,
        0.0,
        0.0,
        0.586072,
        0.0,
        0.0,
        0.586072,
        0.0,
        0.0,
        -26.24383,
        -3.694308,
        69.055435,
        1.0
      ],
      "name": "Holotisch"
    },
    {
      "mesh": 1,
      "name": "MaterialFBXASC032FBXASC0352142150880"
    },
    {
      "mesh": 2,
      "name": "MaterialFBXASC032FBXASC0352142146756"
    }
  ],
  "samplers": [
    {
      "magFilter": 9729,
      "minFilter": 9987,
      "wrapS": 10497,
      "wrapT": 10497
    }
  ],
  "scene": 0,
  "scenes": [
    {
      "name": "Sketchfab_Scene",
      "nodes": [
        0
      ]
    }
  ],
  "textures": [
    {
      "sampler": 0,
      "source": 0
    },
    {
      "sampler": 0,
      "source": 1
    },
    {
      "sampler": 0,
      "source": 2
    },
    {
      "sampler": 0,
      "source": 3
    },
    {
      "sampler": 0,
      "source": 4
    }
  ]
}
